<svg width="36" height="36" viewBox="0 0 36 36" fill="none" xmlns="http://www.w3.org/2000/svg">
<g clip-path="url(#clip0_536_14626)">
<path d="M25.1985 10.3996C25.3125 10.0717 25.4052 9.74379 25.4622 9.41587C26.4888 3.24236 23.4519 3.0285 23.4519 3.0285C23.4519 3.0285 22.9458 2.05899 21.6198 1.32473C20.7287 0.7972 19.4883 0.39086 17.8558 0.526307C17.3283 0.554822 16.8293 0.654625 16.3588 0.811457C15.76 1.01106 15.2111 1.31047 14.7121 1.65265C14.099 2.0376 13.5215 2.51523 13.0154 3.05702C12.2099 3.87682 11.4899 4.94614 11.1833 6.27209C10.9196 7.26298 10.9837 8.29665 11.1976 9.41587C11.2546 9.74379 11.3401 10.0646 11.4613 10.3996C10.8554 10.3426 10.1354 10.6919 10.8126 13.0801C11.2974 14.8266 11.7536 15.3114 12.1029 15.3399C12.4237 17.4143 14.0206 20.052 16.6511 20.9787C17.7275 21.3565 18.9109 21.3565 19.9873 20.9716C22.5751 20.0377 24.2289 17.4072 24.5497 15.3399C24.899 15.3114 25.3553 14.8195 25.8472 13.0801C26.5244 10.6919 25.8044 10.3426 25.1985 10.3996Z" fill="#4F65BB"/>
<path d="M30.2813 23.4453C26.5815 22.5043 23.5731 20.387 23.5731 20.387L21.2278 27.8081L20.7858 29.2053L20.7786 29.1839L20.3937 30.3673L19.1533 26.8528C22.1973 22.6041 18.5402 22.6468 18.3335 22.654C18.1267 22.6468 14.4697 22.6041 17.5137 26.8528L16.2733 30.3673L15.8883 29.1839L15.8812 29.2053L15.4392 27.8081L13.0938 20.387C13.0938 20.387 10.0855 22.5043 6.38568 23.4453C3.62685 24.1439 3.4914 27.3304 3.60546 28.913C3.59121 28.913 3.75517 31.0517 3.912 31.9926C3.912 31.9926 9.30134 35.4929 18.3264 35.5C27.3514 35.5 32.7407 31.9926 32.7407 31.9926C32.9047 31.0517 33.0615 28.913 33.0615 28.913C33.1756 27.3376 33.0401 24.151 30.2813 23.4453Z" fill="#4F65BB"/>
</g>
<defs>
<clipPath id="clip0_536_14626">
<rect width="35" height="35" fill="white" transform="translate(0.833496 0.5)"/>
</clipPath>
</defs>
</svg>
