<svg width="40" height="40" viewBox="0 0 40 40" fill="none" xmlns="http://www.w3.org/2000/svg">
<path d="M36.5012 27.2987V30.0987H5.00001V27.1356C4.99844 26.5097 5.27657 25.9159 5.75846 25.5164C7.45824 24.1447 9.28658 22.9403 11.2176 21.9197C11.3424 22.211 12.552 24.9919 13.3232 26.1661V26.1659C13.3339 26.188 13.3562 26.2021 13.3808 26.2021C13.4053 26.2021 13.4277 26.188 13.4384 26.1659C13.5951 25.6956 14.2 24.0635 15.1183 24.1755H15.1185C15.1473 24.1842 15.1781 24.1704 15.1908 24.1432C15.2035 24.1161 15.1946 24.0836 15.1696 24.0668C14.4752 23.5132 12.7151 22.0892 12.0464 21.2956V19.3789C11.7486 18.8726 11.5457 18.3164 11.448 17.7372C11.2176 17.718 10.9167 17.3979 10.5904 16.2492C10.1712 14.7709 10.5647 14.4765 10.9455 14.4796C10.7439 13.6155 10.2319 10.614 12.4656 9.25076C12.1971 9.02397 12.0415 8.69049 12.0399 8.33893C12.0399 8.33893 14.6 8.62688 15.8192 8.3742C17.0384 8.1213 18.3792 9.0878 18.5872 10.0191C18.5872 10.0191 21.0863 10.0191 20.117 14.4831C20.5074 14.467 20.933 14.736 20.5009 16.2528C20.1808 17.4016 19.8609 17.7249 19.6433 17.7407V17.7405C19.546 18.3197 19.3431 18.876 19.0448 19.382V21.2829C18.3727 22.0765 16.616 23.5037 15.9185 24.0541C15.8935 24.0709 15.8843 24.1033 15.8973 24.1305C15.91 24.1577 15.9408 24.1716 15.9696 24.1629C16.8879 24.0508 17.4928 25.6796 17.6495 26.1533C17.6602 26.1754 17.6827 26.1894 17.7071 26.1894C17.7316 26.1894 17.7542 26.1754 17.7649 26.1533C18.5361 24.9789 19.7457 22.1981 19.8705 21.9069C21.17 22.599 22.4259 23.3705 23.6303 24.2174C24.0361 24.0821 24.4316 23.9187 24.8145 23.7276L24.8848 23.6861C25.0846 23.5569 25.2049 23.3352 25.2049 23.0973V21.9037C22.0464 21.9325 21.1154 20.5789 21.1154 20.5789C21.1154 20.5789 22.9203 20.5501 22.8083 15.7789C22.696 11.0077 24.8752 10.2365 25.6944 9.93892C28.0784 9.03332 29.2752 10.4733 29.2752 10.4733C32.04 10.2173 32.7953 13.238 32.4752 16.675C32.1551 20.1119 34.0241 20.6494 34.0241 20.6494C32.7281 21.9742 29.9922 21.8909 29.9922 21.8909V23.123H29.9919C29.9919 23.361 30.1122 23.5826 30.312 23.7119L30.3953 23.763C31.3553 24.2654 33.3265 24.7871 33.3649 24.8063C34.01 24.9813 34.637 25.2181 35.2368 25.5134C35.94 25.8485 36.4185 26.5246 36.5009 27.2989L36.5012 27.2987Z" fill="#6584FF"/>
</svg>
